<svg width="133" height="88" viewBox="0 0 133 88" fill="none" xmlns="http://www.w3.org/2000/svg">
<path d="M6.20459 82.7044C6.61823 86.0964 10.4364 88.4324 14.6841 87.9044L117.727 75.1844C121.975 74.6564 125.125 71.4564 124.711 68.0644L123.932 61.7124L5.42505 76.3364L6.20459 82.7044Z" fill="#978CFF"/>
<path d="M118.714 18.8962C118.205 14.7202 114.307 11.7282 110.059 12.2562L7.0159 24.9762C2.76817 25.5042 -0.30228 29.3442 0.206811 33.5202L2.38636 51.3282L120.893 36.7042L118.714 18.8962Z" fill="#978CFF"/>
<rect width="119.385" height="25.2125" transform="matrix(0.992469 -0.122492 0.121125 0.992637 2.33691 51.333)" fill="#4B369D"/>
<path d="M15.6227 48.0799C19.2076 48.0799 22.1137 45.1572 22.1137 41.5519C22.1137 37.9466 19.2076 35.0239 15.6227 35.0239C12.0379 35.0239 9.13184 37.9466 9.13184 41.5519C9.13184 45.1572 12.0379 48.0799 15.6227 48.0799Z" fill="#978CFF"/>
<path d="M109.216 53.744L93.0206 55.744C90.6501 56.032 88.4706 54.32 88.1842 51.952L87.1501 43.504C86.8637 41.12 88.566 38.928 90.9206 38.64L107.116 36.64C109.486 36.352 111.666 38.064 111.952 40.432L112.986 48.88C113.273 51.264 111.571 53.456 109.216 53.744Z" fill="#978CFF"/>
<path d="M13.5387 60.1435C13.5387 64.4475 17.0387 67.9835 21.3342 67.9835H125.141C129.421 67.9835 132.936 64.4635 132.936 60.1435V52.0635H13.5546V60.1435H13.5387Z" fill="#A7ADFF"/>
<path d="M132.936 7.87174C132.936 3.56774 129.436 0.0317383 125.141 0.0317383H21.3342C17.0546 0.0317383 13.5387 3.55174 13.5387 7.87174V26.2397H132.921V7.87174H132.936Z" fill="#A7ADFF"/>
<rect x="13.5387" y="26.2559" width="119.382" height="25.824" fill="#E3E5FC"/>
<path d="M29.5592 19.7918C33.144 19.7918 36.0501 16.8692 36.0501 13.2638C36.0501 9.65852 33.144 6.73584 29.5592 6.73584C25.9743 6.73584 23.0682 9.65852 23.0682 13.2638C23.0682 16.8692 25.9743 19.7918 29.5592 19.7918Z" fill="#5A54FF"/>
<path d="M120.973 36.8476H104.65C102.264 36.8476 100.307 34.8796 100.307 32.4796V23.9676C100.307 21.5676 102.264 19.5996 104.65 19.5996H120.973C123.359 19.5996 125.316 21.5676 125.316 23.9676V32.4796C125.3 34.8796 123.359 36.8476 120.973 36.8476Z" fill="#5A54FF"/>
<path d="M41.5705 47.7118H24.3251C23.1001 47.7118 22.0819 46.7038 22.0819 45.4558V45.0558C22.0819 43.8238 23.0842 42.7998 24.3251 42.7998H41.5705C42.7955 42.7998 43.8137 43.8078 43.8137 45.0558V45.4558C43.7978 46.7038 42.7955 47.7118 41.5705 47.7118Z" fill="white"/>
<path d="M68.8546 47.7118H51.6091C50.3841 47.7118 49.366 46.7038 49.366 45.4558V45.0558C49.366 43.8238 50.3682 42.7998 51.6091 42.7998H68.8546C70.0796 42.7998 71.0978 43.8078 71.0978 45.0558V45.4558C71.0818 46.7038 70.0796 47.7118 68.8546 47.7118Z" fill="white"/>
<path d="M96.1387 47.7118H78.8932C77.6682 47.7118 76.65 46.7038 76.65 45.4558V45.0558C76.65 43.8238 77.6523 42.7998 78.8932 42.7998H96.1387C97.3637 42.7998 98.3819 43.8078 98.3819 45.0558V45.4558C98.366 46.7038 97.3637 47.7118 96.1387 47.7118Z" fill="white"/>
<path d="M123.073 47.7118H105.827C104.602 47.7118 103.584 46.7038 103.584 45.4558V45.0558C103.584 43.8238 104.586 42.7998 105.827 42.7998H123.073C124.298 42.7998 125.316 43.8078 125.316 45.0558V45.4558C125.3 46.7038 124.298 47.7118 123.073 47.7118Z" fill="white"/>
</svg>
