<svg width="91" height="184" viewBox="0 0 91 184" fill="none" xmlns="http://www.w3.org/2000/svg">
<path d="M79.6624 183.801H11.2383C5.09707 183.801 0.0498047 178.778 0.0498047 172.612V11.1892C0.0498047 5.04757 5.07221 0 11.2383 0H79.6624C85.8036 0 90.8509 5.0227 90.8509 11.1892V172.612C90.8509 178.754 85.8285 183.801 79.6624 183.801Z" fill="#E3E5FC"/>
<path d="M73.9189 166.644H17.0066C10.8654 166.644 5.81812 161.622 5.81812 155.455V17.3557C5.81812 11.2141 10.8405 6.1665 17.0066 6.1665H73.9189C80.0602 6.1665 85.1075 11.1892 85.1075 17.3557V155.455C85.0826 161.622 80.0602 166.644 73.9189 166.644Z" fill="white"/>
<path d="M54.1526 4.22721H36.7731C36.425 4.22721 36.1515 3.95369 36.1515 3.60558V3.33207C36.1515 2.98396 36.425 2.71045 36.7731 2.71045H54.1526C54.5007 2.71045 54.7742 2.98396 54.7742 3.33207V3.60558C54.7742 3.92883 54.4758 4.22721 54.1526 4.22721Z" fill="#E3E5FC"/>
<path d="M45.4504 179.35C48.0457 179.35 50.1496 177.246 50.1496 174.651C50.1496 172.055 48.0457 169.951 45.4504 169.951C42.8551 169.951 40.7512 172.055 40.7512 174.651C40.7512 177.246 42.8551 179.35 45.4504 179.35Z" fill="#A7ADFF"/>
<path d="M67.2805 147.498H23.6203C19.8908 147.498 16.8326 144.44 16.8326 140.71V137.577C16.8326 133.847 19.8908 130.789 23.6203 130.789H67.2805C71.01 130.789 74.0682 133.847 74.0682 137.577V140.71C74.0682 144.44 71.01 147.498 67.2805 147.498Z" fill="#F44E4E"/>
<path d="M39.472 74.016C40.608 74.352 41.528 74.944 42.232 75.792C42.952 76.624 43.312 77.632 43.312 78.816C43.312 80.544 42.728 81.896 41.56 82.872C40.408 83.848 38.992 84.336 37.312 84.336C36 84.336 34.824 84.04 33.784 83.448C32.76 82.84 32.016 81.952 31.552 80.784L34.384 79.152C34.8 80.448 35.776 81.096 37.312 81.096C38.16 81.096 38.816 80.896 39.28 80.496C39.76 80.08 40 79.52 40 78.816C40 78.128 39.76 77.576 39.28 77.16C38.816 76.744 38.16 76.536 37.312 76.536H36.592L35.32 74.616L38.632 70.296H32.056V67.2H42.616V69.936L39.472 74.016ZM56.6541 79.296C56.6541 80.704 56.2061 81.848 55.3101 82.728C54.4141 83.592 53.2461 84.112 51.8061 84.288V86.4H50.1981V84.312C48.8541 84.216 47.7021 83.84 46.7421 83.184C45.7821 82.528 45.0941 81.64 44.6781 80.52L47.5341 78.864C48.0461 80.144 48.9341 80.872 50.1981 81.048V76.896C50.1821 76.896 50.1741 76.896 50.1741 76.896L50.1261 76.872C49.5661 76.664 49.1101 76.48 48.7581 76.32C48.4061 76.16 47.9901 75.928 47.5101 75.624C47.0461 75.32 46.6781 75.008 46.4061 74.688C46.1501 74.352 45.9181 73.928 45.7101 73.416C45.5181 72.904 45.4221 72.344 45.4221 71.736C45.4221 70.328 45.8781 69.2 46.7901 68.352C47.7181 67.504 48.8541 67.016 50.1981 66.888V64.8H51.8061V66.936C53.9821 67.192 55.5181 68.32 56.4141 70.32L53.6301 71.952C53.2461 70.992 52.6381 70.408 51.8061 70.2V74.208C53.2941 74.8 54.2941 75.272 54.8061 75.624C56.0381 76.504 56.6541 77.728 56.6541 79.296ZM48.7101 71.76C48.7101 72.112 48.8221 72.424 49.0461 72.696C49.2701 72.952 49.6541 73.216 50.1981 73.488V70.128C49.7181 70.224 49.3501 70.416 49.0941 70.704C48.8381 70.992 48.7101 71.344 48.7101 71.76ZM51.8061 81C52.8301 80.776 53.3421 80.216 53.3421 79.32C53.3421 78.92 53.2141 78.584 52.9581 78.312C52.7181 78.04 52.3341 77.784 51.8061 77.544V81Z" fill="black"/>
</svg>
