<svg width="30" height="30" viewBox="0 0 30 30" fill="none" xmlns="http://www.w3.org/2000/svg">
<path fill-rule="evenodd" clip-rule="evenodd" d="M12.3692 14.0375C11.8223 14.0375 11.3899 14.4625 11.3899 15C11.3899 15.525 11.8223 15.9625 12.3692 15.9625H20V21.9375C20 25 17.4691 27.5 14.3405 27.5H8.1468C5.03089 27.5 2.5 25.0125 2.5 21.95V8.0625C2.5 4.9875 5.0436 2.5 8.15952 2.5H14.3659C17.4691 2.5 20 4.9875 20 8.05V14.0375H12.3692ZM24.5378 10.6752L28.1878 14.3127C28.3753 14.5002 28.4753 14.7377 28.4753 15.0002C28.4753 15.2502 28.3753 15.5002 28.1878 15.6752L24.5378 19.3127C24.3503 19.5002 24.1003 19.6002 23.8628 19.6002C23.6128 19.6002 23.3628 19.5002 23.1753 19.3127C22.8003 18.9377 22.8003 18.3252 23.1753 17.9502L25.1753 15.9627H20.0003V14.0377H25.1753L23.1753 12.0502C22.8003 11.6752 22.8003 11.0627 23.1753 10.6877C23.5503 10.3002 24.1628 10.3002 24.5378 10.6752Z" fill="url(#paint0_linear)"/>
<defs>
<linearGradient id="paint0_linear" x1="2.5" y1="2.5" x2="2.5" y2="27.5" gradientUnits="userSpaceOnUse">
<stop stop-color="#B24592"/>
<stop offset="1" stop-color="#F15F79"/>
</linearGradient>
</defs>
</svg>
