<?xml version="1.0" standalone="no"?>
<!DOCTYPE svg PUBLIC "-//W3C//DTD SVG 20010904//EN"
 "http://www.w3.org/TR/2001/REC-SVG-20010904/DTD/svg10.dtd">
<svg version="1.0" xmlns="http://www.w3.org/2000/svg"
 width="32.000000pt" height="32.000000pt" viewBox="0 0 32.000000 32.000000"
 preserveAspectRatio="xMidYMid meet">

<g transform="translate(0.000000,32.000000) scale(0.100000,-0.100000)"
fill="#000000" stroke="none">
<path d="M194 275 c-9 -22 22 -53 37 -38 15 15 7 47 -14 51 -9 2 -20 -4 -23
-13z"/>
<path d="M140 226 c-19 -23 -8 -61 18 -64 44 -7 67 32 36 62 -19 20 -38 20
-54 2z m27 -38 c-3 -7 -5 -2 -5 12 0 14 2 19 5 13 2 -7 2 -19 0 -25z"/>
<path d="M30 147 c-14 -6 -26 -12 -28 -13 -2 -1 5 -18 14 -38 14 -28 22 -35
37 -30 11 4 40 -3 68 -16 l48 -23 53 32 c117 71 123 87 34 90 -55 1 -83 -12
-45 -22 13 -4 20 -12 17 -24 -2 -13 -14 -19 -47 -21 -24 -2 -47 0 -52 5 -4 4
12 8 36 8 54 0 64 17 14 25 -19 4 -46 14 -59 23 -28 19 -54 21 -90 4z"/>
</g>
</svg>
